<svg xmlns="http://www.w3.org/2000/svg" xmlns:xlink="http://www.w3.org/1999/xlink" width="512" height="512" viewBox="0 0 512 512"><defs><style>.a{clip-path:url(#j);}.b,.d,.e{fill:#1e0237;}.c{fill:none;}.c,.e{stroke:#fff;stroke-width:3px;}.d{stroke:#707070;}.f{filter:url(#g);}.g{filter:url(#e);}.h{filter:url(#c);}.i{filter:url(#a);}</style><filter id="a" x="220.802" y="31.128" width="268.198" height="455.744" filterUnits="userSpaceOnUse"><feOffset dy="3" input="SourceAlpha"/><feGaussianBlur stdDeviation="3" result="b"/><feFlood flood-opacity="0.161"/><feComposite operator="in" in2="b"/><feComposite in="SourceGraphic"/></filter><filter id="c" x="215.593" y="-12" width="207.247" height="117.208" filterUnits="userSpaceOnUse"><feOffset dy="-3" input="SourceAlpha"/><feGaussianBlur stdDeviation="3" result="d"/><feFlood flood-opacity="0.161"/><feComposite operator="in" in2="d"/><feComposite in="SourceGraphic"/></filter><filter id="e" x="20.015" y="54" width="269.183" height="455.917" filterUnits="userSpaceOnUse"><feOffset dy="3" input="SourceAlpha"/><feGaussianBlur stdDeviation="3" result="f"/><feFlood flood-opacity="0.161"/><feComposite operator="in" in2="f"/><feComposite in="SourceGraphic"/></filter><filter id="g" x="12.564" y="15.626" width="214.835" height="122.363" filterUnits="userSpaceOnUse"><feOffset dy="-3" input="SourceAlpha"/><feGaussianBlur stdDeviation="3" result="h"/><feFlood flood-opacity="0.161"/><feComposite operator="in" in2="h"/><feComposite in="SourceGraphic"/></filter><clipPath id="j"><rect width="512" height="512"/></clipPath></defs><g id="i" class="a"><path class="b" d="M14.991.051A14.977,14.977,0,0,1,30.033,14.814L31.448,426.79a14.733,14.733,0,0,1-14.941,14.663A14.977,14.977,0,0,1,1.465,426.689L.051,14.713A14.733,14.733,0,0,1,14.991.051Z" transform="matrix(0.985, -0.174, 0.174, 0.985, 202.882, 51.136)"/><g class="i" transform="matrix(1, 0, 0, 1, 0, 0)"><path class="b" d="M181.318,412.525h0l-.2,0c-.77-3.76-3.683-7.39-8.661-10.789-4.831-3.3-11.415-6.256-19.567-8.787-16.754-5.2-38.637-8.111-61.617-8.189s-44.843,2.682-61.562,7.771c-8.135,2.476-14.7,5.388-19.506,8.655-4.954,3.365-7.843,6.975-8.586,10.73h-.2L0,0,179.892.611l1.426,411.913Z" transform="matrix(0.98, -0.17, 0.17, 0.98, 229.8, 68.61)"/></g><g class="h" transform="matrix(1, 0, 0, 1, 0, 0)"><ellipse class="b" cx="90" cy="34.5" rx="90" ry="34.5" transform="matrix(0.98, -0.17, 0.17, 0.98, 224.59, 31.26)"/></g><g class="g" transform="matrix(1, 0, 0, 1, 0, 0)"><path class="b" d="M182.318,412.525h0l-.2,0c-.774-3.76-3.7-7.39-8.709-10.789-4.858-3.3-11.478-6.256-19.675-8.787-16.847-5.2-38.85-8.111-61.957-8.189s-45.09,2.682-61.9,7.771c-8.18,2.476-14.779,5.388-19.614,8.655-4.981,3.365-7.886,6.975-8.634,10.73h-.2L0,0,180.884.611l1.434,411.913Z" transform="matrix(0.98, -0.17, 0.17, 0.98, 29.02, 91.66)"/></g><g class="f" transform="matrix(1, 0, 0, 1, 0, 0)"><ellipse class="b" cx="93.5" cy="36.5" rx="93.5" ry="36.5" transform="matrix(0.98, -0.17, 0.17, 0.98, 21.56, 60.1)"/></g><line class="c" x2="70" y2="390" transform="translate(230 60)"/><line class="c" x2="69" y2="406" transform="translate(210 60)"/><path class="d" d="M1254-1510h-18.746" transform="translate(-1164 1630)"/><path class="d" d="M1254-1526.964v0Z" transform="translate(-1164 1635.701)"/><path class="e" d="M1254-1520.313,1266.586-1510h8.577l8.837-10.313L1297.017-1510l6.651-17.915L1314-1501.309l8.672-8.691h13.3l8.025-10.313,9.079,19V-1540l8.552,30" transform="translate(-1181.63 1630)"/><path class="e" d="M1254-1520.313,1266.586-1510h8.577l8.837-10.313L1297.017-1510l6.651-17.915L1314-1501.309l8.672-8.691h13.3l8.025-10.313,9.079,19V-1540l8.552,30" transform="translate(-962.63 1698)"/><path class="e" d="M1254-1520.313,1266.586-1510h8.577l8.837-10.313L1297.017-1510l6.651-17.915L1314-1501.309l8.672-8.691h13.3l8.025-10.313,9.079,19V-1540l8.552,30" transform="translate(-1134 1870)"/><path class="e" d="M1254-1520.313,1266.586-1510h8.577l8.837-10.313L1297.017-1510l6.651-17.915L1314-1501.309l8.672-8.691h13.3l8.025-10.313,9.079,19V-1540l8.552,30" transform="translate(-934.63 1870)"/><path class="e" d="M1254-1520.313,1266.586-1510h8.577l8.837-10.313L1297.017-1510l6.651-17.915L1314-1501.309l8.672-8.691h13.3l8.025-10.313,9.079,19V-1540l8.552,30" transform="translate(-971.63 1611)"/><path class="e" d="M1254-1520.313,1266.586-1510h8.577l8.837-10.313L1297.017-1510l6.651-17.915L1314-1501.309l8.672-8.691h13.3l8.025-10.313,9.079,19V-1540l8.552,30" transform="translate(-1164 1711.309)"/><path class="e" d="M1254-1520.313,1266.586-1510h8.577l8.837-10.313L1297.017-1510l6.651-17.915L1314-1501.309l8.672-8.691h13.3l8.025-10.313,9.079,19V-1540l8.552,30" transform="translate(-1151.63 1786.618)"/><path class="e" d="M1254-1520.313,1266.586-1510h8.577l8.837-10.313L1297.017-1510l6.651-17.915L1314-1501.309l8.672-8.691h13.3l8.025-10.313,9.079,19V-1540l8.552,30" transform="translate(-941.63 1780)"/></g></svg>