<svg xmlns="http://www.w3.org/2000/svg" xmlns:xlink="http://www.w3.org/1999/xlink" width="512" height="512" viewBox="0 0 512 512"><defs><style>.a{clip-path:url(#b);}.b,.c,.d{fill:#fff;}.c,.e,.g{stroke:#1e0237;}.c,.e{stroke-width:15px;}.e,.g,.j{fill:none;}.f,.i{fill:#1e0237;}.h,.i{stroke:none;}</style><clipPath id="b"><rect width="512" height="512"/></clipPath></defs><g id="a" class="a"><g class="b" transform="translate(612 -754)"><path class="h" d="M -474.3106079101562 1120.5 C -487.8026123046875 1120.5 -500.8895874023438 1117.752319335938 -513.2080078125 1112.333374023438 C -519.13720703125 1109.725219726562 -524.8570556640625 1106.49609375 -530.2088623046875 1102.735717773438 C -535.517822265625 1099.005493164062 -540.5118408203125 1094.719970703125 -545.0521850585938 1089.997924804688 C -549.5972900390625 1085.27099609375 -553.7244262695312 1080.068359375 -557.3189086914062 1074.535034179688 C -560.9500732421875 1068.9453125 -564.0692138671875 1062.968505859375 -566.5899047851562 1056.7705078125 C -571.8389282226562 1043.864013671875 -574.5003662109375 1030.147094726562 -574.5003662109375 1016.000671386719 C -574.5003662109375 1001.854064941406 -571.8389282226562 988.136962890625 -566.5899047851562 975.2302856445312 C -564.069580078125 969.03271484375 -560.9503784179688 963.0557861328125 -557.3189086914062 957.4653930664062 C -553.7243041992188 951.9318237304688 -549.59716796875 946.729248046875 -545.0521240234375 942.0022583007812 C -540.51171875 937.2801513671875 -535.5177001953125 932.9945068359375 -530.2089233398438 929.264404296875 C -524.8561401367188 925.5033569335938 -519.1362915039062 922.2741088867188 -513.2080688476562 919.6663208007812 C -503.1855163574219 915.2574462890625 -492.6543884277344 912.6168212890625 -481.8106079101562 911.7855834960938 L -481.8106079101562 1062.293212890625 L -481.8106079101562 1069.793212890625 L -474.3106079101562 1069.793212890625 L -388.3970336914062 1069.793212890625 C -391.3116455078125 1074.845336914062 -394.6385803222656 1079.643310546875 -398.3465576171875 1084.13623046875 C -404.5014343261719 1091.593383789062 -411.6177978515625 1098.10400390625 -419.497802734375 1103.486938476562 C -435.7908630371094 1114.617065429688 -454.7448425292969 1120.5 -474.3106079101562 1120.5 Z"/><path class="i" d="M -474.3106079101562 1113 C -456.2607421875 1113 -438.7696533203125 1107.568969726562 -423.728271484375 1097.294067382812 C -416.4304504394531 1092.308715820312 -409.8368835449219 1086.275512695312 -404.1310119628906 1079.3623046875 C -403.5680236816406 1078.68017578125 -403.0144348144531 1077.990356445312 -402.4704895019531 1077.293212890625 L -474.3106079101562 1077.293212890625 L -489.3106079101562 1077.293212890625 L -489.3106079101562 1062.293212890625 L -489.3106079101562 920.2564086914062 C -496.4725952148438 921.4730224609375 -503.4549255371094 923.5695190429688 -510.1880493164062 926.5314331054688 C -515.6636962890625 928.940185546875 -520.9490356445312 931.92431640625 -525.8971557617188 935.4010620117188 C -530.8126220703125 938.8548583984375 -535.4384155273438 942.8247680664062 -539.645751953125 947.200439453125 C -543.86279296875 951.5863037109375 -547.6927490234375 956.4146118164062 -551.0294189453125 961.5510864257812 C -554.4027099609375 966.7440185546875 -557.300537109375 972.2969360351562 -559.6425170898438 978.0557250976562 C -564.5248413085938 990.0608520507812 -567.0003662109375 1002.827392578125 -567.0003662109375 1016.000671386719 C -567.0003662109375 1029.173828125 -564.5248413085938 1041.940185546875 -559.6425170898438 1053.945068359375 C -557.3003540039062 1059.7041015625 -554.4025268554688 1065.256958007812 -551.0294189453125 1070.449462890625 C -547.69287109375 1075.585693359375 -543.8629150390625 1080.413940429688 -539.6458129882812 1084.799682617188 C -535.4386596679688 1089.17529296875 -530.81298828125 1093.14501953125 -525.8970336914062 1096.59912109375 C -520.9497680664062 1100.0751953125 -515.66455078125 1103.059204101562 -510.1880187988281 1105.468383789062 C -498.8272705078125 1110.465942382812 -486.7563781738281 1113 -474.3106079101562 1113 M -474.3106079101562 1128 C -488.8486938476562 1128 -502.9517822265625 1125.038818359375 -516.22802734375 1119.198486328125 C -522.6083984375 1116.391845703125 -528.762939453125 1112.91796875 -534.5206909179688 1108.872314453125 C -540.2230834960938 1104.86572265625 -545.5852661132812 1100.264404296875 -550.4584350585938 1095.1962890625 C -555.3319702148438 1090.127685546875 -559.7562255859375 1084.55078125 -563.6083984375 1078.62060546875 C -567.4978637695312 1072.63330078125 -570.83837890625 1066.232421875 -573.537353515625 1059.595947265625 C -579.1529541015625 1045.7880859375 -582.0003662109375 1031.12060546875 -582.0003662109375 1016.000671386719 C -582.0003662109375 1000.880554199219 -579.1529541015625 986.2129516601562 -573.537353515625 972.4048461914062 C -570.8385009765625 965.7683715820312 -567.4978637695312 959.3673706054688 -563.6083984375 953.3798217773438 C -559.7560424804688 947.4494018554688 -555.331787109375 941.8724975585938 -550.4584350585938 936.8040161132812 C -545.585205078125 931.7357788085938 -540.2230224609375 927.1343383789062 -534.5206909179688 923.1277465820312 C -528.7635498046875 919.0825805664062 -522.6090698242188 915.6082153320312 -516.22802734375 912.8012084960938 C -502.9513854980469 906.9608764648438 -488.8483276367188 903.9996948242188 -474.3106079101562 903.9996948242188 L -474.3106079101562 1062.293212890625 L -376.2213745117188 1062.293212890625 C -380.4252319335938 1071.911865234375 -385.9234008789062 1080.8662109375 -392.5621337890625 1088.91015625 C -399.1658325195312 1096.9111328125 -406.8049011230469 1103.899169921875 -415.2672729492188 1109.679931640625 C -432.8117370605469 1121.664794921875 -453.2286071777344 1128 -474.3106079101562 1128 Z"/></g><g class="b" transform="translate(484 374) rotate(180)"><path class="h" d="M 102.2829742431641 216.2260284423828 C 91.138916015625 215.4067687988281 80.31768798828125 212.7549591064453 70.02229309082031 208.3124084472656 C 63.96675872802734 205.6994018554688 58.12482833862305 202.4642639160156 52.65879440307617 198.6969146728516 C 47.24004364013672 194.9620819091797 42.14358139038086 190.6720123291016 37.51100921630859 185.9459381103516 C 32.8758659362793 181.2170562744141 28.66740226745605 176.0132293701172 25.00265121459961 170.4791259765625 C 21.30197334289551 164.8908386230469 18.12354469299316 158.9167633056641 15.55561542510986 152.7228393554688 C 10.21029472351074 139.8298645019531 7.500008583068848 126.128547668457 7.500008583068848 111.9993743896484 C 7.500008583068848 97.87026214599609 10.21029472351074 84.16901397705078 15.55558013916016 71.27629852294922 C 18.1236515045166 65.08216094970703 21.30208015441895 59.10815811157227 25.0025806427002 53.520263671875 C 28.66715240478516 47.98640823364258 32.87557983398438 42.78269195556641 37.51104354858398 38.05355072021484 C 42.14332962036133 33.32783508300781 47.23983001708984 29.0378360748291 52.65890121459961 25.3027286529541 C 58.12493896484375 21.53547859191895 63.96686553955078 18.30047988891602 70.02218627929688 15.68769359588623 C 82.61268615722656 10.25472927093506 95.99008178710938 7.500014781951904 109.7829742431641 7.500014781951904 C 129.7827911376953 7.500014781951904 149.1528625488281 13.3959789276123 165.7991180419922 24.55044364929199 C 173.8410034179688 29.9393367767334 181.1024780273438 36.45569229125977 187.3817596435547 43.91855239868164 C 191.1487731933594 48.39577865600586 194.5291900634766 53.17466735839844 197.4926300048828 58.20672988891602 L 109.7829742431641 58.20672988891602 L 102.2829742431641 58.20672988891602 L 102.2829742431641 65.70672607421875 L 102.2829742431641 216.2260284423828 Z"/><path class="i" d="M 109.7829742431641 14.99998474121094 C 97.01811218261719 14.99998474121094 84.64042663574219 17.5482177734375 72.99346923828125 22.57403564453125 C 67.38783264160156 24.99275207519531 61.9781494140625 27.98857116699219 56.91511535644531 31.47802734375 C 51.89051818847656 34.94120788574219 47.16401672363281 38.91998291015625 42.86711120605469 43.30357360839844 C 38.56442260742188 47.69320678710938 34.6578369140625 52.52375793457031 31.25570678710938 57.66134643554688 C 27.81965637207031 62.84994506835938 24.86833190917969 68.39707946777344 22.48374938964844 74.14866638183594 C 17.51788330078125 86.12625122070312 14.99996948242188 98.86107635498047 14.99996948242188 111.999397277832 C 14.99996948242188 125.1377105712891 17.51788330078125 137.8726654052734 22.48384094238281 149.8505859375 C 24.86819458007812 155.6018981933594 27.81951904296875 161.1491241455078 31.25579833984375 166.3381195068359 C 34.658203125 171.4759826660156 38.56483459472656 176.3067169189453 42.86701965332031 180.6958923339844 C 47.16429138183594 185.0798950195312 51.8907470703125 189.0586242675781 56.91497802734375 192.5215301513672 C 61.97796630859375 196.0111236572266 67.3876953125 199.007080078125 72.99378967285156 201.4261627197266 C 80.01654052734375 204.4565734863281 87.30429840087891 206.5861053466797 94.78297424316406 207.7994842529297 L 94.78297424316406 65.70671081542969 L 94.78297424316406 50.70671081542969 L 109.7829742431641 50.70671081542969 L 183.2485046386719 50.70671081542969 C 182.7221984863281 50.04704284667969 182.1866912841797 49.39344787597656 181.6429290771484 48.74716186523438 C 175.8167419433594 41.82284545898438 169.0814208984375 35.77812194824219 161.6240692138672 30.78094482421875 C 146.2172546386719 20.45693969726562 128.2908782958984 14.99998474121094 109.7829742431641 14.99998474121094 M 109.7829742431641 -1.52587890625e-05 C 131.2747802734375 -1.52587890625e-05 152.0885620117188 6.334991455078125 169.9741058349609 18.3199462890625 C 178.6009216308594 24.10075378417969 186.3885192871094 31.08889770507812 193.1205596923828 39.08984375 C 199.8883361816406 47.13357543945312 205.4933776855469 56.08802795410156 209.7789306640625 65.70671081542969 L 109.7829742431641 65.70671081542969 L 109.7829742431641 224.0002593994141 C 94.96269989013672 224.0002593994141 80.5855712890625 221.0390319824219 67.05084228515625 215.1986694335938 C 60.54574584960938 212.3916168212891 54.27165222167969 208.9173431396484 48.40255737304688 204.8722076416016 C 42.58938598632812 200.8655395507812 37.1229248046875 196.2642211914062 32.15496826171875 191.1959838867188 C 27.1868896484375 186.12744140625 22.67665100097656 180.5504913330078 18.74942016601562 174.6200714111328 C 14.78437805175781 168.632568359375 11.3787841796875 162.2316589355469 8.627426147460938 155.5951690673828 C 2.902694702148438 141.7870330810547 -3.0517578125e-05 127.1193008422852 -3.0517578125e-05 111.999397277832 C -3.0517578125e-05 96.87948608398438 2.902694702148438 82.21185302734375 8.627426147460938 68.40390014648438 C 11.37887573242188 61.76739501953125 14.78437805175781 55.36662292480469 18.74942016601562 49.37925720214844 C 22.67646789550781 43.44898986816406 27.18675231933594 37.87216186523438 32.15496826171875 32.80357360839844 C 37.12283325195312 27.73548889160156 42.58929443359375 23.13426208496094 48.40255737304688 19.12748718261719 C 54.27224731445312 15.08207702636719 60.54638671875 11.60794067382812 67.05084228515625 8.8013916015625 C 80.58515930175781 2.961166381835938 94.96237945556641 -1.52587890625e-05 109.7829742431641 -1.52587890625e-05 Z"/></g><g class="c" transform="translate(138 150)"><rect class="h" width="238" height="188"/><rect class="j" x="7.5" y="7.5" width="223" height="173"/></g><circle class="d" cx="99.5" cy="99.5" r="99.5" transform="translate(270 161)"/><ellipse class="d" cx="98.5" cy="99.5" rx="98.5" ry="99.5" transform="translate(43 161)"/><path class="e" d="M838-754c.073-119.23,98.893-95.475,98.893-95.475" transform="translate(-582 904)"/><circle class="f" cx="15" cy="15" r="15" transform="translate(210 270)"/><circle class="f" cx="15" cy="15" r="15" transform="translate(270 270)"/><g class="b" transform="translate(1232 -708)"><path class="h" d="M -1107.999877929688 1005.5 C -1112.318237304688 1005.5 -1116.378173828125 1003.818359375 -1119.431640625 1000.764831542969 C -1122.485229492188 997.7113647460938 -1124.166870117188 993.6514892578125 -1124.166870117188 989.3331298828125 L -1124.166870117188 973.3338012695312 L -1124.166870117188 970.8338012695312 L -1126.666870117188 970.8338012695312 L -1146.666625976562 970.8338012695312 C -1150.628784179688 970.8338012695312 -1154.353759765625 969.2908325195312 -1157.1552734375 966.4890747070312 C -1159.956909179688 963.6873779296875 -1161.499755859375 959.9622192382812 -1161.499755859375 955.9998168945312 C -1161.499755859375 952.037841796875 -1159.956909179688 948.31298828125 -1157.155395507812 945.5114135742188 C -1154.353759765625 942.709716796875 -1150.628784179688 941.166748046875 -1146.666625976562 941.166748046875 L -1126.666870117188 941.166748046875 L -1124.166870117188 941.166748046875 L -1124.166870117188 938.666748046875 L -1124.166870117188 922.66650390625 C -1124.166870117188 918.34814453125 -1122.485229492188 914.2882690429688 -1119.431640625 911.2348022460938 C -1116.378173828125 908.1812744140625 -1112.318237304688 906.4996337890625 -1107.999877929688 906.4996337890625 C -1103.681518554688 906.4996337890625 -1099.621704101562 908.1812744140625 -1096.568115234375 911.2347412109375 C -1093.5146484375 914.2882690429688 -1091.8330078125 918.34814453125 -1091.8330078125 922.66650390625 L -1091.8330078125 938.666748046875 L -1091.8330078125 941.166748046875 L -1089.3330078125 941.166748046875 L -1069.333251953125 941.166748046875 C -1065.371337890625 941.166748046875 -1061.646484375 942.709716796875 -1058.844848632812 945.5114135742188 C -1056.043090820312 948.3131103515625 -1054.500122070312 952.0379638671875 -1054.500122070312 955.9998168945312 C -1054.500122070312 959.9620971679688 -1056.043090820312 963.687255859375 -1058.844848632812 966.4890747070312 C -1061.646484375 969.290771484375 -1065.371337890625 970.8338012695312 -1069.333251953125 970.8338012695312 L -1089.3330078125 970.8338012695312 L -1091.8330078125 970.8338012695312 L -1091.8330078125 973.3338012695312 L -1091.8330078125 989.3331298828125 C -1091.8330078125 993.6514892578125 -1093.5146484375 997.7113647460938 -1096.568115234375 1000.764892578125 C -1099.621704101562 1003.818359375 -1103.681518554688 1005.5 -1107.999877929688 1005.5 Z"/><path class="i" d="M -1107.999877929688 1003 C -1104.349243164062 1003 -1100.917236328125 1001.578369140625 -1098.3359375 998.9970703125 C -1095.754638671875 996.415771484375 -1094.3330078125 992.9837036132812 -1094.3330078125 989.3331298828125 L -1094.3330078125 973.3338012695312 L -1094.3330078125 968.3338012695312 L -1089.3330078125 968.3338012695312 L -1069.333251953125 968.3338012695312 C -1066.039184570312 968.3338012695312 -1062.942138671875 967.0508422851562 -1060.612670898438 964.7213134765625 C -1058.283081054688 962.3916625976562 -1057.000122070312 959.2943115234375 -1057.000122070312 955.9998168945312 C -1057.000122070312 952.7057495117188 -1058.283081054688 949.6087036132812 -1060.612548828125 947.2791748046875 C -1062.942138671875 944.94970703125 -1066.039184570312 943.666748046875 -1069.333251953125 943.666748046875 L -1089.3330078125 943.666748046875 L -1094.3330078125 943.666748046875 L -1094.3330078125 938.666748046875 L -1094.3330078125 922.66650390625 C -1094.3330078125 919.0159301757812 -1095.754638671875 915.5838623046875 -1098.3359375 913.0025634765625 C -1100.917236328125 910.4212646484375 -1104.349243164062 908.9996337890625 -1107.999877929688 908.9996337890625 C -1111.650512695312 908.9996337890625 -1115.082641601562 910.4212646484375 -1117.663940429688 913.0025634765625 C -1120.245239257812 915.5838623046875 -1121.666870117188 919.0159301757812 -1121.666870117188 922.66650390625 L -1121.666870117188 938.666748046875 L -1121.666870117188 943.666748046875 L -1126.666870117188 943.666748046875 L -1146.666625976562 943.666748046875 C -1149.961059570312 943.666748046875 -1153.05810546875 944.9496459960938 -1155.387573242188 947.2791137695312 C -1157.716918945312 949.6085815429688 -1158.999755859375 952.7056274414062 -1158.999755859375 955.9998168945312 C -1158.999755859375 959.29443359375 -1157.716918945312 962.391845703125 -1155.387451171875 964.7213745117188 C -1153.05810546875 967.0509033203125 -1149.961059570312 968.3338012695312 -1146.666625976562 968.3338012695312 L -1126.666870117188 968.3338012695312 L -1121.666870117188 968.3338012695312 L -1121.666870117188 973.3338012695312 L -1121.666870117188 989.3331298828125 C -1121.666870117188 992.9837036132812 -1120.245239257812 996.415771484375 -1117.663940429688 998.9970703125 C -1115.082641601562 1001.578369140625 -1111.650512695312 1003 -1107.999877929688 1003 M -1107.999877929688 1008 C -1118.309448242188 1008 -1126.666870117188 999.6426391601562 -1126.666870117188 989.3331298828125 L -1126.666870117188 973.3338012695312 L -1146.666625976562 973.3338012695312 C -1156.239868164062 973.3338012695312 -1163.999755859375 965.5731201171875 -1163.999755859375 955.9998168945312 C -1163.999755859375 946.4274291992188 -1156.239868164062 938.666748046875 -1146.666625976562 938.666748046875 L -1126.666870117188 938.666748046875 L -1126.666870117188 922.66650390625 C -1126.666870117188 912.3569946289062 -1118.309448242188 903.9996337890625 -1107.999877929688 903.9996337890625 C -1097.6904296875 903.9996337890625 -1089.3330078125 912.3569946289062 -1089.3330078125 922.66650390625 L -1089.3330078125 938.666748046875 L -1069.333251953125 938.666748046875 C -1059.760864257812 938.666748046875 -1052.000122070312 946.4274291992188 -1052.000122070312 955.9998168945312 C -1052.000122070312 965.5731201171875 -1059.760864257812 973.3338012695312 -1069.333251953125 973.3338012695312 L -1089.3330078125 973.3338012695312 L -1089.3330078125 989.3331298828125 C -1089.3330078125 999.6426391601562 -1097.6904296875 1008 -1107.999877929688 1008 Z"/></g><path class="g" d="M706-694v23.3" transform="translate(-582 904)"/><path class="g" d="M665.049-656h25.617" transform="translate(-582 904)"/><path class="g" d="M706-642v26.522" transform="translate(-582 904)"/><path class="g" d="M720-656h28.554" transform="translate(-582 904)"/><circle class="f" cx="15" cy="15" r="15" transform="translate(374 193)"/><circle class="f" cx="15" cy="15" r="15" transform="translate(326 241)"/><circle class="f" cx="15" cy="15" r="15" transform="translate(420 241)"/><circle class="f" cx="15" cy="15" r="15" transform="translate(373 289)"/></g></svg>