<svg xmlns="http://www.w3.org/2000/svg" xmlns:xlink="http://www.w3.org/1999/xlink" width="512" height="512" viewBox="0 0 512 512"><defs><style>.a{clip-path:url(#b);}.b,.c{fill:#1e0237;}.c{stroke:#fff;}.d,.f{fill:#fff;}.d{stroke:#707070;}.e,.f{stroke:none;}.g{fill:none;}</style><clipPath id="b"><rect width="512" height="512"/></clipPath></defs><g id="a" class="a"><g class="b" transform="translate(1254 -724)"><path class="e" d="M -884.4443969726562 1083.416870117188 L -1149.000366210938 1083.416870117188 C -1152.873168945312 1083.416870117188 -1156.51416015625 1081.908569335938 -1159.252807617188 1079.169799804688 C -1161.991455078125 1076.431030273438 -1163.499755859375 1072.789672851562 -1163.499755859375 1068.91650390625 L -1163.499755859375 918.9999389648438 C -1163.499755859375 915.1267700195312 -1161.991455078125 911.4854125976562 -1159.252807617188 908.7466430664062 C -1156.51416015625 906.0079345703125 -1152.873168945312 904.4996337890625 -1149.000366210938 904.4996337890625 L -884.4443969726562 904.4996337890625 C -880.5711669921875 904.4996337890625 -876.9298706054688 906.0079345703125 -874.1911010742188 908.7466430664062 C -871.4523315429688 911.4853515625 -869.944091796875 915.126708984375 -869.944091796875 918.9999389648438 L -869.944091796875 963.8616943359375 L -869.944091796875 964.9056396484375 L -869.1306762695312 964.2512817382812 L -795.6383056640625 905.1272583007812 L -795.6383056640625 1082.955688476562 L -869.1306762695312 1023.832336425781 L -869.944091796875 1023.177978515625 L -869.944091796875 1024.221923828125 L -869.944091796875 1068.91650390625 C -869.944091796875 1072.789672851562 -871.4523315429688 1076.431030273438 -874.1911010742188 1079.169799804688 C -876.9298706054688 1081.908569335938 -880.5712280273438 1083.416870117188 -884.4443969726562 1083.416870117188 Z"/><path class="f" d="M -884.4443969726562 1082.916870117188 C -880.7047729492188 1082.916870117188 -877.18896484375 1081.460571289062 -874.544677734375 1078.816284179688 C -871.9003295898438 1076.171997070312 -870.444091796875 1072.656127929688 -870.444091796875 1068.91650390625 L -870.444091796875 1024.221923828125 L -870.444091796875 1022.133972167969 L -868.8172607421875 1023.442749023438 L -796.1383056640625 1081.911743164062 L -796.1383056640625 906.1712036132812 L -868.8172607421875 964.6408081054688 L -870.444091796875 965.9495849609375 L -870.444091796875 963.8616943359375 L -870.444091796875 918.9999389648438 C -870.444091796875 915.26025390625 -871.9003295898438 911.7445068359375 -874.544677734375 909.1001586914062 C -877.18896484375 906.4559326171875 -880.7047729492188 904.9996337890625 -884.4443969726562 904.9996337890625 L -1149.000366210938 904.9996337890625 C -1152.739624023438 904.9996337890625 -1156.255126953125 906.4559326171875 -1158.899291992188 909.1001586914062 C -1161.543579101562 911.7445678710938 -1162.999755859375 915.2603149414062 -1162.999755859375 918.9999389648438 L -1162.999755859375 1068.91650390625 C -1162.999755859375 1072.656127929688 -1161.543579101562 1076.171997070312 -1158.899291992188 1078.816284179688 C -1156.255126953125 1081.460571289062 -1152.739624023438 1082.916870117188 -1149.000366210938 1082.916870117188 L -884.4443969726562 1082.916870117188 M -795.1383056640625 1083.999633789062 L -869.444091796875 1024.221923828125 L -869.444091796875 1068.91650390625 C -869.444091796875 1077.201049804688 -876.159912109375 1083.916870117188 -884.4443969726562 1083.916870117188 L -1149.000366210938 1083.916870117188 C -1157.283935546875 1083.916870117188 -1163.999755859375 1077.201049804688 -1163.999755859375 1068.91650390625 L -1163.999755859375 918.9999389648438 C -1163.999755859375 910.7153930664062 -1157.283935546875 903.9996337890625 -1149.000366210938 903.9996337890625 L -884.4443969726562 903.9996337890625 C -876.159912109375 903.9996337890625 -869.444091796875 910.7153930664062 -869.444091796875 918.9999389648438 L -869.444091796875 963.8616943359375 L -795.1383056640625 904.0833129882812 L -795.1383056640625 1083.999633789062 Z"/></g><g class="c" transform="translate(113 72)"><ellipse class="e" cx="53" cy="51.5" rx="53" ry="51.5"/><ellipse class="g" cx="53" cy="51.5" rx="52.5" ry="51"/></g><g class="d" transform="translate(145 105)"><ellipse class="e" cx="21" cy="18.5" rx="21" ry="18.5"/><ellipse class="g" cx="21" cy="18.5" rx="20.5" ry="18"/></g><g class="c" transform="translate(249 72)"><ellipse class="e" cx="53" cy="51.5" rx="53" ry="51.5"/><ellipse class="g" cx="53" cy="51.5" rx="52.5" ry="51"/></g><g class="d" transform="translate(281 105)"><ellipse class="e" cx="21" cy="18.5" rx="21" ry="18.5"/><ellipse class="g" cx="21" cy="18.5" rx="20.5" ry="18"/></g></g></svg>